<?xml version="1.0" encoding="utf-8"?>
<!-- Generator: Adobe Illustrator 23.0.3, SVG Export Plug-In . SVG Version: 6.00 Build 0)  -->
<svg version="1.1" id="Capa_1" xmlns="http://www.w3.org/2000/svg" xmlns:xlink="http://www.w3.org/1999/xlink" x="0px" y="0px"
	 viewBox="0 0 100 70" style="enable-background:new 0 0 100 70;" xml:space="preserve">
<style type="text/css">
	.st0{fill:#73452B;}
</style>
<path class="st0" d="M0.5,18.7L50,1.2l49,16.8c0,0,0.8,1.9,0,2.6L50.3,38.1c0,0-49.4-16.4-49.8-16.8S-0.2,19.9,0.5,18.7z"/>
<path class="st0" d="M1.3,29.2l48.6,16l47.6-16.8c0,0,3,0,1.1,2.6L50,48.6L1.4,32.2C1.4,32.2-0.9,30.7,1.3,29.2z"/>
<path class="st0" d="M1.8,39.6l48.3,16l48-16.8c0,0,1.5,0.4,1.1,2.6L50.1,59l-49-16.4C1.1,42.6-0.4,40.4,1.8,39.6z"/>
<path class="st0" d="M1.3,52.1l49.4,16.8l49.1-17.6c0,0,0.7-1.9-0.8-2.6L50.6,65.5l-48.3-16C2.3,49.4,0.9,49.5,1.3,52.1z"/>
</svg>
