<?xml version="1.0" encoding="utf-8"?>
<!-- Generator: Adobe Illustrator 23.0.3, SVG Export Plug-In . SVG Version: 6.00 Build 0)  -->
<svg version="1.1" id="Capa_1" xmlns="http://www.w3.org/2000/svg" xmlns:xlink="http://www.w3.org/1999/xlink" x="0px" y="0px"
	 viewBox="0 0 55 39" style="enable-background:new 0 0 55 39;" xml:space="preserve">
<style type="text/css">
	.st0{fill:#FFFFFF;}
</style>
<path class="st0" d="M0.2,10.5l27.3-9.7l27.1,9.3c0,0,0.4,1,0,1.4l-26.9,9.7c0,0-27.3-9.1-27.5-9.3S-0.2,11.1,0.2,10.5z"/>
<path class="st0" d="M0.7,16.3l26.9,8.9l26.3-9.3c0,0,1.6,0,0.6,1.4L27.6,27L0.7,17.9C0.7,17.9-0.5,17.1,0.7,16.3z"/>
<path class="st0" d="M0.9,22l26.7,8.9l26.5-9.3c0,0,0.8,0.2,0.6,1.4l-27.1,9.7L0.5,23.7C0.5,23.7-0.3,22.5,0.9,22z"/>
<path class="st0" d="M0.6,28.9l27.3,9.3L55,28.5c0,0,0.4-1-0.4-1.4l-26.7,9.3L1.2,27.5C1.2,27.5,0.4,27.5,0.6,28.9z"/>
</svg>
